PathFileType	4	(X/Y/Z)	s11c0301.trc
DataRate	CameraRate	NumFrames	NumMarkers	Units	OrigDataRate	OrigDataStartFrame	OrigNumFrames
200	200	4	48	mm	200	250	2000
Frame#	Time	racr			lacr			c7			jug			rlel			rdr			llel			ldr			s2			lic			ric			lasi			rasi			rpsi			lpsi			rgt			lgt			rth1			rth2			rth3			rth4			rlfc			rmfc			rsh1			rsh2			rsh3			rsh4			rlmal			rcal			rtoe			rmt5			lth1			lth2			lth4			lth3			llfc			lmfc			llmal			lcal			lmt5			lsh1			lsh2			lsh3			lsh4			ltoe			SBIKE			LBIKE			RBIKE			
		X1	Y1	Z1	X2	Y2	Z2	X3	Y3	Z3	X4	Y4	Z4	X5	Y5	Z5	X6	Y6	Z6	X7	Y7	Z7	X8	Y8	Z8	X9	Y9	Z9	X10	Y10	Z10	X11	Y11	Z11	X12	Y12	Z12	X13	Y13	Z13	X14	Y14	Z14	X15	Y15	Z15	X16	Y16	Z16	X17	Y17	Z17	X18	Y18	Z18	X19	Y19	Z19	X20	Y20	Z20	X21	Y21	Z21	X22	Y22	Z22	X23	Y23	Z23	X24	Y24	Z24	X25	Y25	Z25	X26	Y26	Z26	X27	Y27	Z27	X28	Y28	Z28	X29	Y29	Z29	X30	Y30	Z30	X31	Y31	Z31	X32	Y32	Z32	X33	Y33	Z33	X34	Y34	Z34	X35	Y35	Z35	X36	Y36	Z36	X37	Y37	Z37	X38	Y38	Z38	X39	Y39	Z39	X40	Y40	Z40	X41	Y41	Z41	X42	Y42	Z42	X43	Y43	Z43	X44	Y44	Z44	X45	Y45	Z45	X46	Y46	Z46	X47	Y47	Z47	X48	Y48	Z48	
250	1.2500	453.561707	1399.379780	-130.971915	435.404475	1416.450011	-434.433588	349.508015	1529.479968	-280.022248	390.540017	1353.549018	-287.086556	582.393059	1158.160107	-56.203491	785.805627	931.360996	-87.935408	542.677559	1135.793520	-503.264687	787.072042	923.049021	-457.917955	-165.903678	1207.263836	-236.691960	32.926095	1240.849720	-456.143988	68.522306	1222.552844	-59.786298	67.250854	1165.518571	-422.402523	98.370368	1159.002382	-94.498036	-119.619754	1280.511067	-186.779113	-133.743829	1276.244942	-280.199505	16.977904	1063.518860	-37.775926	-31.872758	1106.617981	-462.045851	124.862753	962.345298	-36.672122	202.438132	921.172421	-52.115709	247.526966	848.210172	-70.171703	225.035952	948.562651	-64.233097	317.056664	768.422640	-92.443552	308.004793	751.315283	-219.660292	225.214280	638.929246	-76.653785	191.315869	559.605134	-94.390147	122.538119	504.983144	-93.320168	209.548282	548.928936	-127.771773	29.882615	408.181687	-102.594933	-34.472813	421.616907	-149.326185	197.722134	253.932574	-147.930566	125.126776	264.579396	-77.609525	103.407836	1031.631118	-476.530248	186.148224	1009.515833	-474.331751	205.748041	1040.125602	-466.522819	249.131811	945.218781	-472.816462	364.827767	860.399057	-448.153876	378.492083	855.538748	-322.371876	258.690376	443.103457	-424.485594	207.211898	390.765341	-387.935295	413.626123	372.090626	-457.956986	332.387179	737.488266	-466.907316	338.685384	652.803012	-451.840036	301.983647	572.821545	-446.007370	369.905711	650.241546	-429.651312	504.742053	410.337222	-390.709875	-216.766577	955.427165	-256.287499	-17.861097	80.825197	-460.960230	-17.902246	80.793839	-62.101253	
251	1.2550	454.135950	1400.151777	-130.931822	435.890756	1417.091910	-434.020047	349.885400	1529.544186	-279.720314	391.104816	1353.593654	-286.898170	581.945234	1158.124890	-55.488136	785.547010	931.541930	-87.545672	541.432254	1135.242411	-503.686835	785.705988	922.415673	-457.165714	-165.517395	1207.013975	-237.186405	33.627610	1240.557453	-456.418414	68.461103	1222.627905	-59.922861	68.035778	1164.992953	-422.797105	98.109405	1159.060824	-94.738986	-119.374291	1280.439849	-187.258766	-133.481806	1275.967822	-280.504471	17.356324	1063.934361	-37.916265	-31.224452	1105.672300	-461.846897	125.938386	963.461094	-36.868343	203.836364	923.009594	-52.111591	249.586872	850.092244	-70.257092	226.247937	950.358429	-64.282459	319.284262	770.797163	-92.507157	310.266645	753.669094	-219.845830	226.717755	641.908815	-76.749368	191.506158	562.895762	-94.761881	123.191719	508.642974	-93.409254	210.595295	551.858961	-127.646649	30.066594	412.293761	-102.624527	-34.138322	425.981530	-149.351290	196.672241	257.226188	-147.713196	124.398157	268.056189	-77.629845	103.455638	1029.465030	-476.117718	186.006206	1006.593599	-473.863998	205.887654	1036.978042	-466.250562	248.368159	941.667643	-471.865616	363.274561	856.231908	-447.215284	376.566811	851.189071	-321.475379	258.953930	438.455570	-424.243879	207.826597	385.829999	-387.987442	414.330769	368.221944	-457.998500	331.131439	733.201433	-466.216643	338.180826	648.320266	-451.080116	301.811775	568.280153	-445.644223	369.251071	646.066485	-429.172127	505.258409	406.920026	-390.715384	-216.730353	955.436335	-256.250191	-17.855675	80.831506	-460.947681	-17.903191	80.792634	-62.109456	
252	1.2600	454.657539	1400.891468	-130.813887	436.407119	1417.769429	-433.745890	350.282921	1529.682219	-279.428714	391.760013	1353.728807	-286.593174	581.431400	1158.016220	-54.697184	785.321683	931.557471	-87.235954	540.033799	1134.527834	-504.246166	785.297633	922.939397	-457.570135	-165.415867	1207.069187	-237.642255	34.386847	1240.275349	-456.651240	68.405142	1222.728569	-60.034510	68.863151	1164.503776	-423.240873	98.388244	1159.175915	-94.578497	-119.006209	1280.078087	-187.343741	-133.115347	1275.655102	-280.963695	17.718237	1064.459730	-38.022022	-30.584730	1104.723052	-461.721918	127.050279	964.570033	-36.920684	205.264257	924.693039	-52.052287	251.448092	852.241549	-70.236843	227.419843	952.271997	-64.334220	321.566413	773.101225	-92.627613	312.430426	756.187988	-220.152720	228.286245	644.690347	-76.772392	192.520068	565.919072	-94.763333	123.786876	512.220531	-93.480765	211.571103	554.850133	-127.624112	30.239627	416.383673	-102.689129	-34.150487	430.845795	-149.349419	195.953033	260.206155	-147.825009	123.626686	271.681156	-77.655444	103.560857	1027.297287	-475.756782	185.884185	1003.697076	-473.342377	206.024390	1033.944641	-466.038195	247.610269	938.170666	-470.875654	361.715804	852.155940	-446.328110	374.717784	846.949842	-320.486039	259.225211	433.861371	-424.108581	208.351581	380.964792	-388.079936	414.967192	364.253159	-457.958029	330.069263	728.964191	-465.534039	337.627056	644.063557	-450.413477	301.683243	563.884131	-445.285341	368.674660	642.001937	-428.632375	505.744231	403.433064	-390.771656	-216.672432	955.445286	-256.222522	-17.849649	80.798149	-460.954469	-17.833889	80.792922	-62.182694	
253	1.2650	455.209176	1401.518344	-130.768233	436.924558	1418.502358	-433.474730	350.744849	1529.834006	-279.114683	392.432367	1353.831126	-286.353497	580.898708	1157.889229	-53.709376	785.081244	931.636258	-86.839149	538.482575	1133.830260	-504.762781	784.768035	923.204299	-457.700708	-165.133802	1206.970414	-238.079777	34.964930	1239.703499	-456.537842	68.389955	1222.890528	-60.175368	69.664961	1164.142599	-423.665291	98.384379	1159.239475	-94.622362	-116.233599	1278.905182	-189.487583	-131.508586	1275.068488	-282.345730	18.090815	1064.889737	-38.134540	-29.863944	1103.813169	-461.514297	128.116908	965.734551	-36.929578	206.604545	926.377139	-52.047322	253.320418	854.174576	-70.191900	228.594559	954.097491	-64.319365	323.764692	775.440172	-92.705687	314.651063	758.494321	-220.286334	229.738763	647.614518	-76.878644	193.464102	569.152932	-94.920260	124.403013	515.830126	-93.637075	212.839723	557.523621	-127.600354	30.395268	420.401736	-102.740036	-34.007129	435.324152	-149.500680	195.237636	263.296545	-147.709557	123.006229	275.209659	-77.663711	103.715274	1025.202512	-475.403817	185.739049	1000.828069	-472.840083	206.267934	1030.877924	-465.790268	246.869599	934.700535	-469.921116	360.153614	848.119987	-445.513879	372.875365	842.814971	-319.583277	259.442856	429.331414	-424.013830	208.919839	376.068145	-387.974328	415.533472	360.258929	-457.982287	329.157661	724.747045	-464.963745	337.080634	639.932985	-449.935882	301.620966	559.576760	-444.952302	368.158554	638.042785	-428.179184	506.290308	399.563280	-390.472919	-216.623599	955.459175	-256.196723	-17.842658	80.796729	-460.958756	-17.882164	80.788090	-62.110648	
